<?xml version="1.0" standalone="no"?>
<!DOCTYPE svg PUBLIC "-//W3C//DTD SVG 20010904//EN"
 "http://www.w3.org/TR/2001/REC-SVG-20010904/DTD/svg10.dtd">
<svg version="1.0" xmlns="http://www.w3.org/2000/svg"
 width="512.000000pt" height="512.000000pt" viewBox="0 0 512.000000 512.000000"
 preserveAspectRatio="xMidYMid meet">
<metadata>
Created by potrace 1.14, written by Peter Selinger 2001-2017
</metadata>
<g transform="translate(0.000000,512.000000) scale(0.100000,-0.100000)"
fill="#000000" stroke="none">
<path d="M1670 5075 l0 -45 -49 0 c-64 0 -81 -7 -81 -35 0 -28 17 -35 81 -35
l49 0 0 -755 0 -755 -835 0 -835 0 0 -25 0 -25 835 0 835 0 0 -841 0 -840 -32
3 -33 3 -3 63 c-2 44 -7 65 -18 69 -28 11 -44 -17 -44 -78 l0 -59 -770 0 -770
0 0 -25 c0 -23 4 -25 43 -25 l42 0 -3 -60 c-4 -65 7 -90 39 -90 23 0 32 32 27
100 l-3 50 763 0 762 0 0 -835 0 -835 25 0 25 0 0 835 0 835 840 0 840 0 0
-770 0 -770 -74 0 c-59 0 -75 -3 -80 -16 -12 -31 13 -44 85 -44 l69 0 0 -35
c0 -31 3 -35 25 -35 l25 0 0 760 0 760 70 0 c54 0 72 4 76 15 12 30 -15 45
-82 45 l-64 0 0 45 0 45 835 0 835 0 0 25 0 25 -835 0 -834 0 -1 840 0 840
764 0 764 0 6 -25 c4 -16 13 -25 26 -25 13 0 24 10 30 25 8 20 16 25 45 25 31
0 35 3 35 25 0 23 -4 25 -40 25 -37 0 -40 2 -40 29 0 32 -24 48 -46 30 -8 -6
-14 -22 -14 -35 l0 -24 -765 0 -765 0 0 835 0 835 -25 0 -25 0 0 -835 0 -835
-840 0 -840 0 0 35 0 35 69 0 c49 0 72 4 81 15 24 29 -5 45 -81 45 l-69 0 0
770 0 770 -25 0 c-23 0 -25 -4 -25 -45z m1728 -1727 l3 -47 -68 -3 c-65 -3
-68 -4 -68 -28 0 -24 3 -25 68 -28 l67 -3 -2 -687 -3 -687 -48 -3 c-83 -5 -73
-62 10 -62 l44 0 -3 -37 -3 -38 -835 0 -835 0 -3 825 c-1 454 0 831 3 838 3
10 176 12 837 10 l833 -3 3 -47z"/>
<path d="M1812 3253 c3 -42 6 -48 26 -51 17 -3 25 2 29 17 3 12 15 21 32 23
20 2 26 8 26 28 0 23 -4 25 -58 28 l-58 3 3 -48z"/>
<path d="M2016 3284 c-13 -33 13 -45 88 -42 68 3 71 4 71 28 0 24 -2 25 -76
28 -64 2 -78 0 -83 -14z"/>
<path d="M2266 3284 c-12 -30 13 -44 79 -44 66 0 93 15 81 45 -8 23 -151 22
-160 -1z"/>
<path d="M2514 3285 c-12 -30 15 -45 81 -45 66 0 93 15 81 45 -4 12 -23 15
-81 15 -58 0 -77 -3 -81 -15z"/>
<path d="M2764 3285 c-14 -35 3 -45 74 -45 73 0 98 13 86 44 -9 23 -152 24
-160 1z"/>
<path d="M3014 3285 c-14 -35 3 -45 74 -45 77 0 106 16 82 45 -9 11 -32 15
-82 15 -52 0 -70 -4 -74 -15z"/>
<path d="M1822 3111 c-9 -5 -12 -29 -10 -82 3 -71 4 -74 28 -74 24 0 25 3 28
68 4 82 -11 110 -46 88z"/>
<path d="M1822 2861 c-9 -5 -12 -29 -10 -82 3 -63 6 -74 22 -77 27 -6 36 15
36 84 0 71 -16 96 -48 75z"/>
<path d="M1817 2613 c-4 -3 -7 -39 -7 -80 0 -78 13 -99 45 -73 19 15 21 130 3
148 -13 13 -31 16 -41 5z"/>
<path d="M1817 2363 c-4 -3 -7 -39 -7 -80 0 -78 13 -99 45 -73 19 15 21 130 3
148 -13 13 -31 16 -41 5z"/>
<path d="M1817 2113 c-4 -3 -7 -39 -7 -79 0 -57 3 -73 16 -78 30 -11 44 13 44
74 0 32 -3 65 -6 74 -6 16 -35 22 -47 9z"/>
<path d="M1817 1864 c-4 -4 -7 -20 -7 -36 l0 -28 69 0 c72 0 97 13 85 44 -4
11 -18 16 -44 16 -21 0 -50 3 -66 6 -16 3 -32 2 -37 -2z"/>
<path d="M2057 1853 c-13 -12 -7 -41 9 -47 9 -3 42 -6 74 -6 46 0 61 4 68 18
18 34 3 42 -72 42 -40 0 -76 -3 -79 -7z"/>
<path d="M2307 1853 c-4 -3 -7 -14 -7 -24 0 -23 30 -31 101 -27 51 3 54 5 57
31 l3 27 -74 0 c-40 0 -77 -3 -80 -7z"/>
<path d="M2554 1845 c-14 -37 3 -46 78 -43 70 3 73 4 73 28 0 24 -3 25 -73 28
-58 2 -73 0 -78 -13z"/>
<path d="M2797 1848 c-2 -7 0 -21 5 -30 7 -14 22 -18 71 -18 70 0 91 9 85 36
-3 16 -14 19 -80 22 -55 2 -77 -1 -81 -10z"/>
<path d="M3046 1844 c-12 -30 13 -44 78 -44 69 0 90 9 84 36 -3 16 -14 19 -79
22 -64 2 -78 0 -83 -14z"/>
<path d="M1053 5023 c-16 -6 -17 -35 -1 -51 18 -18 123 -15 142 4 9 8 16 17
16 19 0 2 -7 11 -16 19 -15 16 -111 22 -141 9z"/>
<path d="M1303 5023 c-18 -7 -16 -50 3 -57 9 -3 37 -6 64 -6 63 0 80 7 80 35
0 13 -7 26 -16 29 -18 7 -113 7 -131 -1z"/>
<path d="M1796 5014 c-9 -8 -16 -17 -16 -19 0 -2 7 -11 16 -19 19 -19 124 -22
142 -4 17 17 15 45 -4 52 -33 12 -122 6 -138 -10z"/>
<path d="M2048 5019 c-42 -24 -4 -59 66 -59 63 0 97 20 80 47 -8 14 -26 19
-70 20 -32 2 -67 -2 -76 -8z"/>
<path d="M2292 5018 c-32 -32 1 -58 75 -58 60 0 93 20 77 47 -14 22 -132 31
-152 11z"/>
<path d="M2542 5018 c-32 -32 1 -58 75 -58 60 0 93 20 77 47 -14 22 -132 31
-152 11z"/>
<path d="M2792 5018 c-32 -32 1 -58 75 -58 60 0 93 20 77 47 -14 22 -132 31
-152 11z"/>
<path d="M3143 5010 c-18 -11 -33 -24 -33 -29 0 -5 -3 -16 -6 -25 -5 -13 1
-16 29 -16 22 0 37 6 41 15 3 9 18 15 36 15 26 0 30 -3 30 -29 0 -29 -14 -41
-51 -41 -14 0 -19 -7 -19 -25 0 -19 5 -25 21 -25 49 0 76 -39 47 -68 -20 -20
-59 -15 -65 8 -4 15 -14 20 -39 20 -38 0 -41 -8 -19 -50 20 -39 78 -57 128
-41 43 14 65 38 73 78 5 25 1 37 -19 57 -24 24 -24 25 -6 42 22 19 25 71 6 95
-32 42 -102 51 -154 19z"/>
<path d="M3575 5005 c-50 -19 -61 -27 -63 -49 -3 -26 -2 -27 32 -20 l36 6 0
-111 0 -111 35 0 35 0 0 155 c0 85 -3 155 -7 154 -5 0 -35 -11 -68 -24z"/>
<path d="M3734 4996 c-19 -19 -34 -43 -34 -55 0 -17 6 -21 34 -21 28 0 35 4
40 26 5 20 12 25 34 22 21 -2 28 -9 30 -30 2 -20 -11 -43 -62 -101 -36 -42
-66 -85 -66 -96 0 -20 5 -21 105 -21 l105 0 0 25 c0 24 -3 25 -61 25 l-62 0
41 44 c87 94 96 167 25 204 -43 23 -92 15 -129 -22z"/>
<path d="M4115 5013 c-18 -18 -9 -42 19 -47 94 -19 136 -13 136 21 0 18 -28
30 -88 35 -38 4 -57 1 -67 -9z"/>
<path d="M852 5009 c-54 -10 -62 -16 -62 -40 0 -28 19 -32 86 -20 69 13 94 32
74 55 -14 17 -32 18 -98 5z"/>
<path d="M4354 4966 c-11 -28 3 -42 66 -65 48 -18 64 -20 76 -11 25 22 15 40
-33 61 -71 30 -101 35 -109 15z"/>
<path d="M618 4929 c-42 -21 -58 -35 -58 -49 0 -32 27 -35 83 -9 67 32 80 45
67 70 -14 25 -24 24 -92 -12z"/>
<path d="M4575 4853 c-12 -33 103 -117 134 -98 22 13 10 36 -40 75 -55 43 -83
50 -94 23z"/>
<path d="M406 4787 c-50 -44 -57 -70 -22 -83 22 -9 117 76 114 101 -5 35 -40
28 -92 -18z"/>
<path d="M4771 4701 c-20 -13 -7 -49 38 -100 26 -31 43 -42 54 -38 28 11 19
50 -24 100 -43 50 -46 52 -68 38z"/>
<path d="M4175 4671 c-112 -27 -205 -131 -205 -230 0 -21 4 -22 62 -19 54 3
63 6 66 23 15 82 86 132 173 122 26 -3 58 -11 69 -17 29 -15 51 -64 52 -115 2
-102 -46 -144 -173 -152 l-80 -6 3 -51 3 -51 87 -5 c98 -6 130 -22 161 -81 23
-43 18 -119 -10 -157 -77 -106 -266 -70 -289 54 l-6 34 -64 0 c-72 0 -72 0
-53 -75 15 -60 75 -126 141 -156 71 -32 201 -33 268 -3 95 44 144 109 156 206
10 83 -9 134 -70 194 l-53 51 34 27 c78 63 98 179 48 281 -50 103 -189 157
-320 126z"/>
<path d="M795 4651 l-140 -16 0 -50 0 -50 93 -3 92 -3 0 -390 0 -390 68 3 67
3 0 455 c0 448 0 455 -20 456 -11 1 -83 -6 -160 -15z"/>
<path d="M2467 4660 c-99 -25 -176 -94 -201 -181 -9 -29 -16 -63 -16 -76 0
-23 2 -24 67 -21 l68 3 7 44 c13 79 51 113 138 125 109 16 183 -83 151 -201
-15 -55 -55 -106 -254 -327 -167 -185 -168 -187 -165 -229 l3 -42 295 0 295 0
3 52 3 53 -210 2 -210 3 110 120 c225 245 272 317 273 420 0 33 -6 77 -13 99
-18 52 -77 115 -129 138 -50 22 -161 31 -215 18z"/>
<path d="M243 4600 c-28 -42 -43 -90 -29 -90 2 0 11 -3 19 -6 19 -7 101 110
93 132 -12 31 -50 15 -83 -36z"/>
<path d="M3271 4616 c-7 -9 -11 -41 -9 -83 3 -65 4 -68 28 -68 24 0 25 3 28
68 3 64 -7 97 -28 97 -4 0 -13 -6 -19 -14z"/>
<path d="M3542 4618 c-14 -14 -16 -126 -3 -146 5 -8 17 -12 27 -10 16 3 19 14
22 77 2 53 -1 77 -10 82 -17 12 -22 11 -36 -3z"/>
<path d="M4902 4487 c-9 -11 -7 -26 10 -68 26 -66 41 -84 64 -75 20 8 15 52
-13 112 -19 42 -43 53 -61 31z"/>
<path d="M163 4432 c-10 -6 -53 -111 -53 -128 0 -1 7 -9 15 -18 25 -25 43 -8
65 60 17 52 19 68 10 79 -14 17 -20 18 -37 7z"/>
<path d="M3271 4366 c-7 -9 -11 -41 -9 -83 3 -65 4 -68 28 -68 24 0 25 3 28
68 3 64 -7 97 -28 97 -4 0 -13 -6 -19 -14z"/>
<path d="M3542 4368 c-7 -7 -12 -38 -12 -74 0 -65 15 -92 45 -80 23 8 18 159
-5 164 -9 1 -21 -3 -28 -10z"/>
<path d="M4974 4246 c-3 -8 -2 -44 3 -78 7 -58 10 -63 33 -63 21 0 25 5 28 35
5 62 -11 115 -36 118 -13 2 -25 -3 -28 -12z"/>
<path d="M103 4188 c-6 -7 -13 -40 -16 -74 -7 -64 2 -84 34 -84 22 0 29 20 29
89 0 68 -22 100 -47 69z"/>
<path d="M3272 4121 c-9 -5 -12 -29 -10 -82 3 -71 4 -74 28 -74 24 0 25 3 28
74 3 69 -4 91 -28 91 -3 0 -11 -4 -18 -9z"/>
<path d="M3542 4118 c-7 -7 -12 -38 -12 -74 0 -65 15 -92 45 -80 23 8 18 159
-5 164 -9 1 -21 -3 -28 -10z"/>
<path d="M4984 3997 c-3 -8 -4 -43 -2 -78 3 -61 4 -64 28 -64 24 0 25 2 25 75
0 70 -1 75 -23 78 -12 2 -24 -3 -28 -11z"/>
<path d="M96 3934 c-21 -20 -21 -113 -2 -140 12 -15 18 -17 33 -8 33 20 27
164 -7 164 -5 0 -16 -7 -24 -16z"/>
<path d="M3267 3874 c-4 -4 -7 -38 -7 -74 0 -71 13 -96 44 -84 14 5 16 19 14
83 -3 68 -5 76 -23 79 -12 2 -24 0 -28 -4z"/>
<path d="M3542 3868 c-7 -7 -12 -38 -12 -74 0 -65 15 -92 45 -80 23 8 18 159
-5 164 -9 1 -21 -3 -28 -10z"/>
<path d="M4995 3757 c-13 -10 -15 -27 -13 -82 3 -67 4 -70 28 -70 24 0 25 2
28 76 3 81 -8 101 -43 76z"/>
<path d="M90 3681 c-15 -29 -12 -114 4 -137 12 -15 18 -17 33 -8 22 13 31 127
12 150 -16 20 -36 17 -49 -5z"/>
<path d="M3267 3624 c-4 -4 -7 -16 -7 -26 0 -11 -7 -18 -19 -18 -10 0 -24 -7
-31 -15 -21 -26 5 -45 62 -45 l49 0 -3 53 c-3 44 -6 52 -23 55 -12 2 -24 0
-28 -4z"/>
<path d="M3542 3618 c-7 -7 -12 -38 -12 -74 0 -65 14 -90 44 -78 14 5 16 19
14 83 -2 58 -6 76 -18 79 -9 1 -21 -3 -28 -10z"/>
<path d="M224 3565 c-14 -37 3 -46 78 -43 70 3 73 4 73 28 0 24 -3 25 -73 28
-58 2 -73 0 -78 -13z"/>
<path d="M474 3565 c-14 -37 3 -46 78 -43 70 3 73 4 73 28 0 24 -3 25 -73 28
-58 2 -73 0 -78 -13z"/>
<path d="M720 3565 c-10 -12 -10 -18 0 -30 10 -12 30 -15 84 -13 68 3 71 4 71
28 0 24 -3 25 -71 28 -54 2 -74 -1 -84 -13z"/>
<path d="M970 3565 c-10 -12 -10 -18 0 -30 10 -12 30 -15 84 -13 68 3 71 4 71
28 0 24 -3 25 -71 28 -54 2 -74 -1 -84 -13z"/>
<path d="M1220 3565 c-10 -12 -10 -18 0 -30 10 -12 30 -15 84 -13 68 3 71 4
71 28 0 24 -3 25 -71 28 -54 2 -74 -1 -84 -13z"/>
<path d="M1466 3565 c-13 -35 4 -45 79 -45 77 0 91 7 80 40 -6 18 -15 20 -80
20 -55 0 -74 -4 -79 -15z"/>
<path d="M1964 3565 c-14 -35 3 -45 74 -45 77 0 106 16 82 45 -9 11 -32 15
-82 15 -52 0 -70 -4 -74 -15z"/>
<path d="M2214 3565 c-14 -35 3 -45 74 -45 77 0 106 16 82 45 -9 11 -32 15
-82 15 -52 0 -70 -4 -74 -15z"/>
<path d="M2464 3565 c-14 -37 3 -46 78 -43 70 3 73 4 73 28 0 24 -3 25 -73 28
-58 2 -73 0 -78 -13z"/>
<path d="M2714 3565 c-14 -37 3 -46 78 -43 70 3 73 4 73 28 0 24 -3 25 -73 28
-58 2 -73 0 -78 -13z"/>
<path d="M2960 3565 c-10 -12 -10 -18 0 -30 10 -12 30 -15 84 -13 68 3 71 4
71 28 0 24 -3 25 -71 28 -54 2 -74 -1 -84 -13z"/>
<path d="M3536 3365 c-3 -9 -6 -25 -6 -36 0 -11 -5 -28 -12 -38 -18 -30 -3
-51 37 -51 l36 0 -3 68 c-3 60 -5 67 -24 70 -13 2 -24 -4 -28 -13z"/>
<path d="M125 3295 c-50 -19 -61 -27 -63 -49 -3 -26 -2 -27 32 -20 l36 6 0
-111 0 -111 35 0 35 0 0 155 c0 85 -3 155 -7 154 -5 0 -35 -11 -68 -24z"/>
<path d="M293 3300 c-18 -11 -33 -24 -33 -29 0 -5 -3 -16 -6 -25 -5 -13 1 -16
29 -16 22 0 37 6 41 15 3 9 18 15 36 15 26 0 30 -3 30 -29 0 -29 -14 -41 -51
-41 -14 0 -19 -7 -19 -25 0 -19 5 -25 21 -25 49 0 76 -39 47 -68 -20 -20 -59
-15 -65 8 -4 15 -14 20 -39 20 -38 0 -41 -8 -19 -50 20 -39 78 -57 128 -41 43
14 65 38 73 78 5 25 1 37 -19 57 -24 24 -24 25 -6 42 22 19 25 71 6 95 -32 42
-102 51 -154 19z"/>
<path d="M554 3285 c-10 -25 16 -45 56 -45 41 0 64 18 54 44 -8 22 -102 23
-110 1z"/>
<path d="M757 3293 c-13 -12 -7 -41 9 -47 9 -3 42 -6 74 -6 46 0 61 4 68 18
18 34 3 42 -72 42 -40 0 -76 -3 -79 -7z"/>
<path d="M1004 3285 c-14 -37 3 -46 78 -43 70 3 73 4 73 28 0 24 -3 25 -73 28
-58 2 -73 0 -78 -13z"/>
<path d="M1247 3288 c-2 -7 0 -21 5 -30 7 -14 22 -18 71 -18 70 0 91 9 85 36
-3 16 -14 19 -80 22 -55 2 -77 -1 -81 -10z"/>
<path d="M1496 3284 c-7 -19 10 -44 30 -44 8 0 14 -9 14 -20 0 -21 27 -40 48
-33 7 3 12 25 12 59 l0 54 -49 0 c-36 0 -51 -4 -55 -16z"/>
<path d="M4992 3258 c-7 -7 -12 -38 -12 -74 0 -65 15 -92 45 -80 23 8 18 159
-5 164 -9 1 -21 -3 -28 -10z"/>
<path d="M1546 3084 c-9 -23 -7 -117 3 -132 5 -8 17 -12 27 -10 16 3 19 14 22
81 3 76 2 77 -22 77 -13 0 -27 -7 -30 -16z"/>
<path d="M4992 3008 c-7 -7 -12 -38 -12 -74 0 -65 15 -92 45 -80 23 8 18 159
-5 164 -9 1 -21 -3 -28 -10z"/>
<path d="M848 2997 c-123 -35 -213 -145 -239 -292 -18 -107 -7 -346 20 -416
28 -72 76 -127 142 -164 46 -25 65 -29 129 -30 125 0 199 44 252 152 29 60 32
75 32 157 0 71 -4 101 -20 137 -52 112 -139 165 -260 157 -52 -4 -84 -12 -118
-31 l-46 -26 0 34 c0 55 37 141 75 174 50 43 106 57 175 41 91 -20 91 -20 106
30 8 25 14 46 14 46 0 1 -19 9 -42 19 -57 22 -162 28 -220 12z m132 -426 c86
-60 95 -242 15 -329 -30 -34 -38 -37 -87 -37 -106 0 -159 70 -166 223 -4 80
-2 96 14 113 52 58 163 72 224 30z"/>
<path d="M4101 2693 c-171 -269 -201 -323 -201 -355 l0 -38 205 0 205 0 0
-105 0 -105 65 0 65 0 0 105 0 105 65 0 65 0 0 55 0 55 -65 0 -65 0 0 300 0
300 -69 0 -68 0 -202 -317z m206 -280 c-3 -2 -59 -2 -127 -1 l-122 3 123 187
124 187 3 -186 c1 -102 1 -188 -1 -190z"/>
<path d="M90 2911 c-15 -29 -12 -114 4 -137 12 -15 18 -17 33 -8 22 13 31 127
12 150 -16 20 -36 17 -49 -5z"/>
<path d="M1557 2848 c-13 -7 -17 -23 -17 -71 0 -70 9 -91 36 -85 16 3 19 14
22 79 3 81 -6 97 -41 77z"/>
<path d="M4992 2758 c-7 -7 -12 -38 -12 -74 0 -65 15 -92 45 -80 23 8 18 159
-5 164 -9 1 -21 -3 -28 -10z"/>
<path d="M90 2661 c-15 -29 -12 -114 4 -137 12 -15 18 -17 33 -8 22 13 31 127
12 150 -16 20 -36 17 -49 -5z"/>
<path d="M1552 2598 c-14 -14 -16 -126 -3 -146 5 -8 17 -12 27 -10 16 3 19 14
22 77 2 53 -1 77 -10 82 -17 12 -22 11 -36 -3z"/>
<path d="M4986 2505 c-3 -9 -6 -43 -6 -75 0 -61 14 -85 44 -74 14 5 16 19 14
83 -3 69 -5 76 -24 79 -13 2 -24 -4 -28 -13z"/>
<path d="M90 2411 c-16 -31 -12 -117 6 -135 19 -20 19 -20 38 0 19 19 22 124
4 142 -18 18 -36 15 -48 -7z"/>
<path d="M1552 2348 c-7 -7 -12 -38 -12 -74 0 -65 15 -92 45 -80 23 8 18 159
-5 164 -9 1 -21 -3 -28 -10z"/>
<path d="M4987 2264 c-4 -4 -7 -38 -7 -75 0 -56 3 -70 18 -78 34 -18 43 1 40
80 -3 66 -5 74 -23 77 -12 2 -24 0 -28 -4z"/>
<path d="M92 2168 c-18 -18 -15 -123 4 -142 19 -20 19 -20 38 0 16 16 22 105
10 138 -7 19 -35 21 -52 4z"/>
<path d="M1552 2098 c-7 -7 -12 -38 -12 -74 0 -65 15 -92 45 -80 23 8 18 159
-5 164 -9 1 -21 -3 -28 -10z"/>
<path d="M4984 2007 c-3 -8 -4 -43 -2 -78 3 -61 4 -64 28 -64 24 0 25 2 25 75
0 70 -1 75 -23 78 -12 2 -24 -3 -28 -11z"/>
<path d="M86 1914 c-8 -20 -8 -108 0 -128 3 -9 16 -16 29 -16 28 0 35 17 35
80 0 63 -7 80 -35 80 -13 0 -26 -7 -29 -16z"/>
<path d="M3544 1845 c-12 -30 15 -45 81 -45 66 0 93 15 81 45 -4 12 -23 15
-81 15 -58 0 -77 -3 -81 -15z"/>
<path d="M3794 1845 c-12 -30 15 -45 81 -45 66 0 93 15 81 45 -4 12 -23 15
-81 15 -58 0 -77 -3 -81 -15z"/>
<path d="M4044 1845 c-12 -30 15 -45 81 -45 66 0 91 14 79 44 -9 23 -152 24
-160 1z"/>
<path d="M4297 1853 c-13 -12 -7 -41 9 -47 9 -3 42 -6 74 -6 46 0 61 4 68 18
18 34 3 42 -72 42 -40 0 -76 -3 -79 -7z"/>
<path d="M4547 1853 c-4 -3 -7 -14 -7 -24 0 -23 30 -31 101 -27 51 3 54 5 57
31 l3 27 -74 0 c-40 0 -77 -3 -80 -7z"/>
<path d="M4794 1845 c-14 -37 3 -46 78 -43 70 3 73 4 73 28 0 24 -3 25 -73 28
-58 2 -73 0 -78 -13z"/>
<path d="M1835 1595 c-50 -19 -61 -27 -63 -49 -3 -26 -2 -27 32 -20 l36 6 0
-111 0 -111 35 0 35 0 0 155 c0 85 -3 155 -7 154 -5 0 -35 -11 -68 -24z"/>
<path d="M1960 1590 l0 -30 70 0 c39 0 70 -4 70 -9 0 -5 -25 -61 -55 -125
l-54 -116 37 0 37 0 58 134 c31 74 57 144 57 155 0 20 -5 21 -110 21 l-110 0
0 -30z"/>
<path d="M1552 1598 c-7 -7 -12 -38 -12 -74 0 -65 14 -90 44 -78 14 5 16 19
14 83 -2 58 -6 76 -18 79 -9 1 -21 -3 -28 -10z"/>
<path d="M2444 1565 c-14 -37 3 -46 78 -43 70 3 73 4 73 28 0 24 -3 25 -73 28
-58 2 -73 0 -78 -13z"/>
<path d="M2691 1561 c-17 -31 8 -42 86 -39 65 3 68 4 68 28 0 24 -3 25 -72 28
-63 2 -73 0 -82 -17z"/>
<path d="M2940 1565 c-10 -12 -10 -18 0 -30 10 -12 30 -15 84 -13 68 3 71 4
71 28 0 24 -3 25 -71 28 -54 2 -74 -1 -84 -13z"/>
<path d="M3191 1567 c-6 -8 -8 -22 -5 -31 5 -14 19 -16 83 -14 74 3 76 4 76
28 0 24 -3 25 -71 28 -52 2 -74 -1 -83 -11z"/>
<path d="M3690 1565 c-7 -8 -10 -22 -6 -30 8 -23 151 -22 160 1 12 30 -13 44
-79 44 -43 0 -66 -5 -75 -15z"/>
<path d="M3934 1565 c-14 -35 3 -45 80 -45 59 0 75 3 80 16 12 31 -13 44 -86
44 -52 0 -70 -4 -74 -15z"/>
<path d="M4184 1565 c-14 -35 3 -45 74 -45 50 0 73 4 82 15 24 29 -5 45 -82
45 -52 0 -70 -4 -74 -15z"/>
<path d="M4434 1565 c-14 -37 3 -46 78 -43 70 3 73 4 73 28 0 24 -3 25 -73 28
-58 2 -73 0 -78 -13z"/>
<path d="M4684 1565 c-14 -37 3 -46 78 -43 70 3 73 4 73 28 0 24 -3 25 -73 28
-58 2 -73 0 -78 -13z"/>
<path d="M4931 1562 c-12 -22 3 -42 30 -42 10 0 20 -11 23 -26 5 -19 12 -25
29 -22 19 3 22 10 25 56 l3 52 -50 0 c-39 0 -53 -4 -60 -18z"/>
<path d="M95 1424 c-20 -20 -20 -113 -1 -140 24 -32 50 -7 54 51 6 84 -18 124
-53 89z"/>
<path d="M4992 1378 c-7 -7 -12 -39 -12 -74 0 -65 15 -92 45 -80 22 8 22 151
-1 160 -20 8 -18 8 -32 -6z"/>
<path d="M1546 1345 c-3 -9 -6 -43 -6 -75 0 -61 14 -85 44 -74 14 5 16 19 14
83 -3 69 -5 76 -24 79 -13 2 -24 -4 -28 -13z"/>
<path d="M574 1276 c-3 -7 -4 -33 -2 -57 l3 -44 238 -3 c130 -1 237 -4 237 -7
0 -2 -25 -39 -56 -82 -71 -99 -156 -273 -188 -385 -28 -98 -61 -301 -52 -324
4 -10 22 -14 65 -14 33 0 62 3 65 8 2 4 12 60 20 125 40 283 104 439 263 636
41 50 44 58 41 105 l-3 51 -313 3 c-260 2 -313 0 -318 -12z"/>
<path d="M2456 1264 c-108 -34 -157 -98 -164 -215 -4 -62 -1 -82 16 -116 21
-40 74 -93 94 -93 6 0 -7 -13 -28 -29 -104 -74 -134 -160 -99 -277 24 -79 80
-130 174 -158 129 -38 270 -4 348 84 26 28 53 108 53 154 0 79 -53 167 -122
202 l-29 15 40 29 c63 46 84 98 79 190 -4 64 -9 84 -34 121 -60 88 -209 131
-328 93z m169 -118 c82 -54 84 -187 3 -236 -102 -62 -226 25 -204 143 7 40 47
94 80 108 29 12 92 4 121 -15z m21 -397 c86 -53 85 -199 -3 -256 -37 -25 -139
-25 -176 0 -61 40 -84 126 -54 200 17 39 35 55 84 73 46 17 105 10 149 -17z"/>
<path d="M4132 1262 c-67 -24 -133 -87 -163 -156 -30 -66 -32 -187 -6 -263 24
-69 88 -135 152 -156 89 -31 205 -17 257 30 17 15 18 14 18 -24 0 -107 -64
-204 -147 -219 -34 -6 -121 4 -180 22 -24 7 -31 -8 -36 -70 -2 -25 3 -30 38
-44 24 -9 77 -15 135 -16 85 -1 101 2 152 27 69 34 120 90 150 166 21 52 23
72 23 266 0 241 -9 282 -75 358 -74 83 -210 117 -318 79z m188 -122 c44 -31
63 -84 68 -185 4 -82 2 -93 -19 -119 -29 -36 -76 -56 -134 -56 -59 0 -97 20
-127 67 -19 32 -23 51 -23 124 0 76 3 90 26 125 35 53 81 76 137 69 24 -2 56
-14 72 -25z"/>
<path d="M90 1171 c-15 -29 -12 -114 4 -137 12 -15 18 -17 33 -8 22 13 31 127
12 150 -16 20 -36 17 -49 -5z"/>
<path d="M1822 1181 c-9 -5 -12 -29 -10 -82 3 -63 6 -74 22 -77 27 -6 36 15
36 84 0 71 -16 96 -48 75z"/>
<path d="M4992 1128 c-7 -7 -12 -38 -12 -74 0 -65 15 -92 45 -80 23 8 18 159
-5 164 -9 1 -21 -3 -28 -10z"/>
<path d="M1546 1095 c-3 -9 -6 -43 -6 -75 0 -47 4 -61 18 -69 34 -18 43 1 40
80 -3 67 -5 74 -24 77 -13 2 -24 -4 -28 -13z"/>
<path d="M101 926 c-10 -11 -10 -28 0 -75 13 -66 27 -85 54 -75 15 6 16 15 11
60 -11 94 -35 127 -65 90z"/>
<path d="M1817 933 c-4 -3 -7 -39 -7 -80 0 -78 13 -99 45 -73 19 15 21 130 3
148 -13 13 -31 16 -41 5z"/>
<path d="M4975 879 c-4 -6 -14 -38 -21 -72 -14 -56 -13 -63 2 -74 19 -14 41
-7 48 15 20 66 26 115 15 128 -14 17 -35 18 -44 3z"/>
<path d="M1546 844 c-9 -23 -7 -117 3 -132 5 -8 17 -12 27 -10 16 3 19 14 22
81 3 76 2 77 -22 77 -13 0 -27 -7 -30 -16z"/>
<path d="M167 694 c-24 -24 33 -149 68 -149 30 0 29 42 -2 100 -26 47 -50 65
-66 49z"/>
<path d="M1817 683 c-4 -3 -7 -39 -7 -80 0 -78 13 -99 45 -73 19 15 21 130 3
148 -13 13 -31 16 -41 5z"/>
<path d="M4871 595 c-35 -63 -37 -88 -4 -93 16 -2 28 9 53 52 35 62 36 89 4
94 -17 2 -28 -9 -53 -53z"/>
<path d="M1557 608 c-13 -7 -17 -23 -17 -71 0 -70 9 -91 36 -85 16 3 19 14 22
79 3 81 -6 97 -41 77z"/>
<path d="M284 465 c-11 -29 81 -130 109 -119 29 11 19 46 -25 91 -43 44 -74
54 -84 28z"/>
<path d="M4726 401 c-50 -50 -58 -83 -22 -89 24 -5 106 75 106 104 0 17 -17
34 -34 34 -1 0 -23 -22 -50 -49z"/>
<path d="M1817 433 c-4 -3 -7 -39 -7 -79 0 -57 3 -73 16 -78 30 -12 44 13 44
78 0 60 -11 86 -35 86 -7 0 -15 -3 -18 -7z"/>
<path d="M1552 358 c-14 -14 -16 -126 -3 -146 5 -8 17 -12 27 -10 16 3 19 14
22 77 2 53 -1 77 -10 82 -17 12 -22 11 -36 -3z"/>
<path d="M463 295 c-7 -20 20 -50 75 -82 34 -20 45 -23 57 -13 25 21 17 38
-37 75 -57 38 -85 44 -95 20z"/>
<path d="M4537 255 c-21 -12 -46 -30 -55 -39 -15 -15 -15 -17 0 -33 16 -15 20
-15 56 1 60 27 94 58 87 79 -9 23 -42 20 -88 -8z"/>
<path d="M687 183 c-4 -3 -7 -14 -7 -24 0 -20 69 -50 121 -52 30 -2 34 1 34
22 0 20 -9 27 -50 42 -54 19 -88 23 -98 12z"/>
<path d="M1817 183 c-4 -3 -7 -30 -7 -60 l0 -53 44 0 c46 0 72 19 62 45 -3 8
-14 15 -24 15 -14 0 -21 9 -25 30 -6 29 -33 41 -50 23z"/>
<path d="M4305 162 c-48 -14 -61 -21 -63 -40 -5 -30 17 -36 80 -22 61 15 78
25 78 50 0 14 -23 34 -33 29 -1 0 -29 -8 -62 -17z"/>
<path d="M931 126 c-7 -9 -11 -22 -8 -30 12 -32 142 -34 161 -4 16 26 -1 36
-74 44 -54 5 -68 3 -79 -10z"/>
<path d="M1174 115 c-12 -30 15 -45 81 -45 66 0 93 15 81 45 -8 22 -154 22
-162 0z"/>
<path d="M1424 115 c-12 -30 15 -45 81 -45 66 0 93 15 81 45 -8 22 -154 22
-162 0z"/>
<path d="M2007 123 c-13 -12 -7 -41 9 -47 9 -3 42 -6 74 -6 61 0 85 14 74 44
-5 13 -21 16 -78 16 -40 0 -76 -3 -79 -7z"/>
<path d="M2257 123 c-13 -12 -7 -41 9 -47 9 -3 42 -6 74 -6 46 0 61 4 68 18
18 34 3 42 -72 42 -40 0 -76 -3 -79 -7z"/>
<path d="M2504 115 c-14 -37 3 -46 78 -43 70 3 73 4 73 28 0 24 -3 25 -73 28
-58 2 -73 0 -78 -13z"/>
<path d="M2752 103 c3 -26 6 -28 57 -31 78 -4 103 4 99 31 -3 20 -9 22 -81 25
l-78 3 3 -28z"/>
<path d="M2997 118 c-2 -7 0 -21 5 -30 7 -14 22 -18 71 -18 70 0 91 9 85 36
-3 16 -14 19 -80 22 -55 2 -77 -1 -81 -10z"/>
<path d="M3494 115 c-12 -30 15 -45 81 -45 66 0 93 15 81 45 -8 22 -154 22
-162 0z"/>
<path d="M3744 115 c-12 -30 15 -45 81 -45 66 0 93 15 81 45 -8 22 -154 22
-162 0z"/>
<path d="M3994 115 c-12 -30 15 -45 81 -45 66 0 93 15 81 45 -8 22 -154 22
-162 0z"/>
</g>
</svg>
